<svg preserveAspectRatio="none" overflow="visible" style="display: block;" width="24" height="24" viewBox="0 0 24 24" fill="none" xmlns="http://www.w3.org/2000/svg">
<g id="Instagram - Iconly Pro">
<path id="Vector" fill-rule="evenodd" clip-rule="evenodd" d="M11.8446 9.57989C10.3266 9.57989 9.09155 10.8129 9.09155 12.3299C9.09155 13.8469 10.3266 15.0799 11.8446 15.0799C13.3626 15.0799 14.5966 13.8469 14.5966 12.3299C14.5966 10.8129 13.3626 9.57989 11.8446 9.57989Z" fill="#4E46E5"/>
<path id="Vector_2" fill-rule="evenodd" clip-rule="evenodd" d="M16.8639 8.4089C16.2939 8.4089 15.8289 7.9469 15.8289 7.3799C15.8289 6.8109 16.2939 6.3489 16.8639 6.3489C17.4339 6.3489 17.8979 6.8109 17.8979 7.3799C17.8979 7.9469 17.4339 8.4089 16.8639 8.4089ZM11.8439 16.5799C9.4999 16.5799 7.5919 14.6739 7.5919 12.3299C7.5919 9.9859 9.4999 8.0799 11.8439 8.0799C14.1889 8.0799 16.0959 9.9859 16.0959 12.3299C16.0959 14.6739 14.1889 16.5799 11.8439 16.5799ZM16.2169 2.4999H7.7819C4.6229 2.4999 2.4999 4.7219 2.4999 8.0299V15.9699C2.4999 19.2769 4.6229 21.4999 7.7819 21.4999H16.2159C19.3759 21.4999 21.4999 19.2769 21.4999 15.9699V8.0299C21.4999 4.7219 19.3769 2.4999 16.2169 2.4999Z" fill="#4E46E5"/>
</g>
</svg>
