<svg preserveAspectRatio="none" overflow="visible" style="display: block;" width="48" height="48" viewBox="0 0 48 48" fill="none" xmlns="http://www.w3.org/2000/svg">
<g id="messages check - Iconly Pro">
<foreignObject x="-11.6374" y="-10.3747" width="72.4778" height="72.5915"><div xmlns="http://www.w3.org/1999/xhtml" style="backdrop-filter:blur(8.62px);clip-path:url(#bgblur_0_0_25_clip_path);height:100%;width:100%"></div></foreignObject><path id="Vector" data-figma-bg-blur-radius="17.235" fill-rule="evenodd" clip-rule="evenodd" d="M32.1044 22.7878L23.5164 31.4058C23.2344 31.6878 22.8524 31.8478 22.4544 31.8478C22.0564 31.8478 21.6724 31.6878 21.3924 31.4058L17.0984 27.0958C16.5144 26.5098 16.5144 25.5598 17.1024 24.9758C17.6904 24.3898 18.6404 24.3938 19.2244 24.9798L22.4544 28.2218L29.9804 20.6698C30.5624 20.0838 31.5124 20.0798 32.1004 20.6658C32.6884 21.2518 32.6884 22.2018 32.1044 22.7878ZM39.5464 14.1498C36.1644 9.85184 31.1204 7.20584 25.7084 6.89184C20.2804 6.57984 14.9884 8.59784 11.1584 12.4398C5.54645 18.0698 4.01645 26.7118 7.32845 33.8978C7.54645 34.4458 8.21245 35.6898 9.31045 37.5958C9.49645 37.9158 9.47645 38.3078 9.26245 38.6118C8.81645 39.2398 8.25445 40.0438 7.81845 40.7018C7.25245 41.5518 7.20045 42.6378 7.68045 43.5378C8.15845 44.4278 9.08245 44.9818 10.0904 44.9818H10.0944L11.3164 44.9798C16.0564 44.9798 22.8924 44.9738 24.5324 44.9818H24.5984C30.2004 44.9818 35.4984 42.5078 39.1404 38.1878C44.9364 31.3138 45.1084 21.2038 39.5464 14.1498Z" fill="url(#paint0_linear_0_25)" fill-opacity="0.3"/>
</g>
<defs>
<clipPath id="bgblur_0_0_25_clip_path" transform="translate(11.6374 10.3747)"><path fill-rule="evenodd" clip-rule="evenodd" d="M32.1044 22.7878L23.5164 31.4058C23.2344 31.6878 22.8524 31.8478 22.4544 31.8478C22.0564 31.8478 21.6724 31.6878 21.3924 31.4058L17.0984 27.0958C16.5144 26.5098 16.5144 25.5598 17.1024 24.9758C17.6904 24.3898 18.6404 24.3938 19.2244 24.9798L22.4544 28.2218L29.9804 20.6698C30.5624 20.0838 31.5124 20.0798 32.1004 20.6658C32.6884 21.2518 32.6884 22.2018 32.1044 22.7878ZM39.5464 14.1498C36.1644 9.85184 31.1204 7.20584 25.7084 6.89184C20.2804 6.57984 14.9884 8.59784 11.1584 12.4398C5.54645 18.0698 4.01645 26.7118 7.32845 33.8978C7.54645 34.4458 8.21245 35.6898 9.31045 37.5958C9.49645 37.9158 9.47645 38.3078 9.26245 38.6118C8.81645 39.2398 8.25445 40.0438 7.81845 40.7018C7.25245 41.5518 7.20045 42.6378 7.68045 43.5378C8.15845 44.4278 9.08245 44.9818 10.0904 44.9818H10.0944L11.3164 44.9798C16.0564 44.9798 22.8924 44.9738 24.5324 44.9818H24.5984C30.2004 44.9818 35.4984 42.5078 39.1404 38.1878C44.9364 31.3138 45.1084 21.2038 39.5464 14.1498Z"/>
</clipPath><linearGradient id="paint0_linear_0_25" x1="9.66491" y1="10.3775" x2="50.741" y2="31.5828" gradientUnits="userSpaceOnUse">
<stop stop-color="#B693F6"/>
<stop offset="0.447036" stop-color="#7666FF"/>
<stop offset="1" stop-color="#6748E5"/>
</linearGradient>
</defs>
</svg>
