<svg preserveAspectRatio="none" overflow="visible" style="display: block;" width="45.9131" height="45.9131" viewBox="0 0 45.9131 45.9131" fill="none" xmlns="http://www.w3.org/2000/svg">
<g id="Chat code - Iconly Pro">
<path id="Vector" d="M20.9593 38.6555L18.2399 35.9361C17.4656 35.1617 16.4158 34.728 15.3213 34.728H13.2776C9.11564 34.728 5.74102 31.3534 5.74102 27.1916V13.963C5.74102 9.801 9.11564 6.4264 13.2776 6.4264H32.6411C36.8031 6.4264 40.1758 9.801 40.1758 13.963V27.1916C40.1758 31.3534 36.8031 34.728 32.6411 34.728H30.5974C29.503 34.728 28.4531 35.1617 27.6789 35.9361L24.9576 38.6555C23.8537 39.7593 22.065 39.7593 20.9593 38.6555Z" stroke="url(#paint0_linear_0_34)" stroke-width="2.86957" stroke-linecap="round" stroke-linejoin="round"/>
<path id="Vector_2" d="M18.7337 16.4993L14.3595 20.8735L18.7337 25.2458" stroke="url(#paint1_linear_0_34)" stroke-width="2.86957" stroke-linecap="round" stroke-linejoin="round"/>
<path id="Vector_3" d="M27.1826 16.4995L31.5568 20.8737L27.1826 25.246" stroke="url(#paint2_linear_0_34)" stroke-width="2.86957" stroke-linecap="round" stroke-linejoin="round"/>
</g>
<defs>
<linearGradient id="paint0_linear_0_34" x1="22.9584" y1="6.4264" x2="22.9584" y2="39.4834" gradientUnits="userSpaceOnUse">
<stop stop-color="#A399FF"/>
<stop offset="1" stop-color="#5E4CFF"/>
</linearGradient>
<linearGradient id="paint1_linear_0_34" x1="16.5466" y1="16.4993" x2="16.5466" y2="25.2458" gradientUnits="userSpaceOnUse">
<stop stop-color="#A399FF"/>
<stop offset="1" stop-color="#5E4CFF"/>
</linearGradient>
<linearGradient id="paint2_linear_0_34" x1="29.3697" y1="16.4995" x2="29.3697" y2="25.246" gradientUnits="userSpaceOnUse">
<stop stop-color="#A399FF"/>
<stop offset="1" stop-color="#5E4CFF"/>
</linearGradient>
</defs>
</svg>
